<?xml version="1.0" encoding="UTF-8"?>
<svg width="987px" height="719px" viewBox="0 0 987 719" version="1.1" xmlns="http://www.w3.org/2000/svg" xmlns:xlink="http://www.w3.org/1999/xlink">
    <!-- Generator: Sketch 51.2 (57519) - http://www.bohemiancoding.com/sketch -->
    <title>Dag - Right Element 2</title>
    <desc>Created with Sketch.</desc>
    <defs>
        <linearGradient x1="3.20181127%" y1="40.1234646%" x2="94.7604501%" y2="73.9822424%" id="linearGradient-1">
            <stop stop-color="#FE227C" stop-opacity="0" offset="0%"></stop>
            <stop stop-color="#FE227C" stop-opacity="0.144036952" offset="68.0427132%"></stop>
            <stop stop-color="#FE227C" stop-opacity="0.238960598" offset="100%"></stop>
        </linearGradient>
    </defs>
    <g id="Dag---Right-Element-2" stroke="none" stroke-width="1" fill="none" fill-rule="evenodd">
        <g id="Node-2" transform="translate(659.000000, 138.000000)" stroke-linecap="round">
            <polyline id="Path" stroke="#F2F0EB" stroke-width="34.5" points="679.383184 139.376081 0.883726499 139.376081 0.883726499 0"></polyline>
            <polyline id="Path" stroke-opacity="0.941" stroke="#706A5F" stroke-width="3.30017166" points="674.474062 139.290764 0.476708453 139.290764 0.476708453 0"></polyline>
        </g>
        <g id="Node-4" transform="translate(260.000000, 387.000000)" stroke-linecap="round">
            <polyline id="Path" stroke="#F2F0EB" stroke-width="34.5" points="798.383184 0.376080849 119.883726 0.376080849 0.231275091 147.63574"></polyline>
            <polyline id="Path" stroke-opacity="0.941" stroke="#706A5F" stroke-width="3.30017166" points="793.474062 0.290764179 119.476708 0.290764179 5.49049042 143.146834"></polyline>
        </g>
        <g id="Ship" transform="translate(660.000000, 122.000000) rotate(270.000000) translate(-660.000000, -122.000000) translate(574.000000, 61.000000)" fill-rule="nonzero">
            <path d="M22.9890385,5.49491888 C26.7245077,1.0359587 33.4222692,-0.718281711 39.3322154,1.28474189 L163.212192,50.8449041 C168.318354,53.1949484 171.827592,57.9422419 171.848885,63.0556932 C171.872838,68.1704204 168.676331,72.9661947 163.318654,74.7102286 L39.0647308,120.955833 C32.9046,123.045612 26.1908692,121.389609 22.6829615,116.642316 C19.1750538,111.895022 18.8782923,105.759646 22.8799154,100.618127 C23.9471923,99.5859956 24.4768385,98.2196018 25.5467769,97.1887463 C33.0097308,86.5650664 37.2442385,73.9192257 37.1830231,60.2833555 C37.1218077,46.6449336 33.0376769,33.0384071 24.6711308,21.848267 C24.1335,21.510177 23.8606923,20.489528 23.3230615,20.1527139 C21.4360308,18.1203466 20.6176077,15.0583997 20.3368154,12.3319912 C20.3288308,10.6287832 21.3894538,7.89216814 22.9890385,5.49491888 Z" id="Shape" fill="#302C43"></path>
            <ellipse id="Oval" fill="#FEFCF9" cx="76.9530615" cy="61.1547345" rx="24.7403308" ry="24.3016519"></ellipse>
            <ellipse id="Oval" fill="#FF9A09" transform="translate(11.303923, 61.150007) rotate(90.546727) translate(-11.303923, -61.150007) " cx="11.3039227" cy="61.1500069" rx="35.9133079" ry="10.0929903"></ellipse>
        </g>
        <polyline id="Path" stroke-opacity="0.941" stroke="#E7E7E7" stroke-width="3.30017166" stroke-linecap="round" points="1089.15718 175.638084 816 175.638084 816 93"></polyline>
        <polyline id="Path" stroke-opacity="0.941" stroke="#E7E7E7" stroke-width="3.30017166" stroke-linecap="round" points="473.491888 279.554298 281.554298 279.554298 180 178"></polyline>
        <path d="M501.554298,159.554298 L400,58" id="Path" stroke-opacity="0.941" stroke="#E7E7E7" stroke-width="3.30017166" stroke-linecap="round"></path>
        <path d="M743.554298,461.25 L642,461.25" id="Path" stroke-opacity="0.941" stroke="#E7E7E7" stroke-width="3.30017166" stroke-linecap="round"></path>
        <polyline id="Path" stroke-opacity="0.941" stroke="#E7E7E7" stroke-width="3.30017166" stroke-linecap="round" points="209.797335 385 120.104642 385 63 454.10245"></polyline>
        <g id="alien_ship" transform="translate(470.000000, 580.000000)">
            <circle id="Oval" fill="#00599F" fill-rule="nonzero" cx="59.5" cy="74.5" r="12.5"></circle>
            <circle id="Oval" fill="#00599F" fill-rule="nonzero" cx="98.5" cy="80.5" r="12.5"></circle>
            <circle id="Oval" fill="#00599F" fill-rule="nonzero" cx="137.5" cy="73.5" r="12.5"></circle>
            <path d="M193.999242,52.8099053 C193.855504,65.1982999 147.721395,78.6859046 94.0589761,77.9729035 C40.3965573,77.2599023 0.0299609559,62.4473039 1.54096718e-05,50.1064427 C-0.0299301366,37.7715232 43.5887525,28.3301999 97.2451823,29.0372593 C150.907601,29.7502605 194.208861,40.4036857 193.999242,52.8039636 L193.999242,52.8099053 Z" id="Shape" fill="#6198AA" fill-rule="nonzero"></path>
            <path d="M174.987511,47.4344941 C174.867815,57.5493642 137.774101,68.5623961 94.6297677,67.9776867 C51.485434,67.3990052 19.023946,55.3069734 19.0000069,45.2342989 C18.9820525,35.1555964 54.046923,27.4518991 97.1972416,28.0305806 C140.34756,28.61529 175.155085,37.3135961 174.99948,47.440522 L174.987511,47.4344941 Z" id="Shape" fill="#89B2BF" fill-rule="nonzero"></path>
            <path d="M130.996048,36.1217622 C131.287638,16.4627542 115.407155,0.292240057 95.525995,0.00390793963 C75.6448353,-0.284424177 59.2915903,15.4186112 59,35.0776192 C63.5777487,54.5663103 122.422519,60.1192524 130.996048,36.1217622 Z" id="Shape" fill="#ECECEC" fill-rule="nonzero"></path>
            <path d="M94.1525714,11.0000404 C89.8657068,10.990499 85.7516458,12.6723138 82.7203671,15.6734882 C79.6890884,18.6746626 77.9904037,22.747866 78.0000408,26.9921569 L78.0000408,49.2903507 C88.446711,52.3358994 101.342197,52.9688957 111.999972,50.3951085 L111.999972,26.9861852 C112.008002,22.7429281 110.308609,18.6712622 107.277505,15.6713814 C104.246401,12.6715007 100.133258,10.9905046 95.8474411,11.0000404 L94.1525714,11.0000404 Z" id="Shape" fill="#87D86D" fill-rule="nonzero"></path>
            <path d="M94.0642224,11.0000404 C89.8008055,10.9904869 85.709247,12.674448 82.6945483,15.6794526 C79.6798497,18.6844572 77.9904562,22.762859 78.0000406,27.0125666 L78.0000406,49.339218 C83.5344181,50.9238587 89.2447267,51.8176189 95,52 L95,11 L94.0642224,11.0000404 Z" id="Shape" fill="#73AA61" fill-rule="nonzero"></path>
            <ellipse id="Oval" fill="#FFFFFF" fill-rule="nonzero" cx="95" cy="27.5" rx="11" ry="11.5"></ellipse>
            <circle id="Oval" fill="#000000" fill-rule="nonzero" cx="96" cy="28" r="7"></circle>
            <path d="M97.2111369,23 L97,24.9642857 C98.1319285,25.6488095 98.4720936,26.8214286 98.788799,28 C99.4222098,26.2380952 98.5542024,24.6011905 97.205272,23 L97.2111369,23 Z" id="Shape" fill="#FFFFFF"></path>
        </g>
        <g id="Ship" transform="translate(252.642441, 541.081562) scale(-1, 1) rotate(49.000000) translate(-252.642441, -541.081562) translate(196.142441, 501.081562)" fill-rule="nonzero">
            <path d="M15.0159615,3.58916667 C17.4558923,0.676666667 21.8307308,-0.469166667 25.6909846,0.839166667 L106.606808,33.2108333 C109.942046,34.7458333 112.234208,37.8466667 112.248115,41.1866667 C112.263762,44.5275 110.175869,47.66 106.676346,48.7991667 L25.5162692,79.0058333 C21.4926,80.3708333 17.1073308,79.2891667 14.8160385,76.1883333 C12.5247462,73.0875 12.3309077,69.08 14.9446846,65.7216667 C15.6418077,65.0475 15.9877615,64.155 16.6866231,63.4816667 C21.5612692,56.5425 24.3271615,48.2825 24.2871769,39.3758333 C24.2471923,30.4675 21.5795231,21.58 16.1146692,14.2708333 C15.7635,14.05 15.5853077,13.3833333 15.2341385,13.1633333 C14.0015692,11.8358333 13.4669923,9.83583333 13.2835846,8.055 C13.2783692,6.9425 13.9711462,5.155 15.0159615,3.58916667 Z" id="Shape" fill="#0AABC7"></path>
            <ellipse id="Oval" fill="#FEFCF9" cx="50.2641385" cy="39.945" rx="16.1598692" ry="15.8733333"></ellipse>
            <ellipse id="Oval" fill="#FE227C" transform="translate(7.383487, 39.941912) rotate(90.546727) translate(-7.383487, -39.941912) " cx="7.38348711" cy="39.941912" rx="23.4578254" ry="6.59253121"></ellipse>
        </g>
        <path d="M525.027092,602.238245 L331.632449,623.166313 C325.683243,604.46394 324.144132,586.270119 327.015116,568.58485 C329.886099,550.899582 340.077421,533.314297 357.589082,515.828996 L534.790071,586.053258 C532.389466,587.577538 530.267373,590.109475 528.423792,593.649068 C526.58021,597.188661 525.447977,600.05172 525.027092,602.238245 Z" id="Path-2" fill="url(#linearGradient-1)"></path>
    </g>
</svg>