<?xml version="1.0" encoding="UTF-8"?>
<svg width="987px" height="719px" viewBox="0 0 987 719" version="1.1" xmlns="http://www.w3.org/2000/svg" xmlns:xlink="http://www.w3.org/1999/xlink">
    <!-- Generator: Sketch 51.2 (57519) - http://www.bohemiancoding.com/sketch -->
    <title>Dag - Left Element 2</title>
    <desc>Created with Sketch.</desc>
    <defs></defs>
    <g id="Dag---Left-Element-2" stroke="none" stroke-width="1" fill="none" fill-rule="evenodd">
        <g id="Node-2" transform="translate(584.500000, 330.500000) scale(-1, 1) translate(-584.500000, -330.500000) translate(402.000000, 329.000000)" stroke="#F2F0EB" stroke-linecap="round" stroke-width="34.5">
            <path d="M364,1.37608085 L0.883726499,1.37608085" id="Path"></path>
        </g>
        <g id="Node-2" transform="translate(207.000000, 221.000000) scale(-1, 1) translate(-207.000000, -221.000000) translate(-273.000000, 111.000000)" stroke-linecap="round">
            <polyline id="Path" stroke="#F2F0EB" stroke-width="34.5" points="959.383184 219.376081 280.883726 219.376081 116.975382 0 2.27373675e-13 0"></polyline>
            <polyline id="Path" stroke-opacity="0.941" stroke="#706A5F" stroke-width="3.30017166" points="954.474062 219.290764 280.476708 219.290764 116.568364 0 3 0"></polyline>
        </g>
        <g id="Node-3" transform="translate(-356.000000, 522.000000)">
            <path d="M5.68434189e-14,1 L664.585794,1" id="Path" stroke="#F2F0EB" stroke-width="34.5" fill="#D8D8D8" stroke-linecap="round"></path>
            <path d="M3,1.6 L657.989567,1.6" id="Path" stroke-opacity="0.941" stroke="#706A5F" stroke-width="3.30017166"></path>
        </g>
        <g id="Ship" transform="translate(608.000000, 72.000000)" fill-rule="nonzero">
            <path d="M15.0159615,3.58916667 C17.4558923,0.676666667 21.8307308,-0.469166667 25.6909846,0.839166667 L106.606808,33.2108333 C109.942046,34.7458333 112.234208,37.8466667 112.248115,41.1866667 C112.263762,44.5275 110.175869,47.66 106.676346,48.7991667 L25.5162692,79.0058333 C21.4926,80.3708333 17.1073308,79.2891667 14.8160385,76.1883333 C12.5247462,73.0875 12.3309077,69.08 14.9446846,65.7216667 C15.6418077,65.0475 15.9877615,64.155 16.6866231,63.4816667 C21.5612692,56.5425 24.3271615,48.2825 24.2871769,39.3758333 C24.2471923,30.4675 21.5795231,21.58 16.1146692,14.2708333 C15.7635,14.05 15.5853077,13.3833333 15.2341385,13.1633333 C14.0015692,11.8358333 13.4669923,9.83583333 13.2835846,8.055 C13.2783692,6.9425 13.9711462,5.155 15.0159615,3.58916667 Z" id="Shape" fill="#0AABC7"></path>
            <ellipse id="Oval" fill="#FEFCF9" cx="50.2641385" cy="39.945" rx="16.1598692" ry="15.8733333"></ellipse>
            <ellipse id="Oval" fill="#FE227C" transform="translate(7.383487, 39.941912) rotate(90.546727) translate(-7.383487, -39.941912) " cx="7.38348711" cy="39.941912" rx="23.4578254" ry="6.59253121"></ellipse>
        </g>
        <polyline id="Path" stroke-opacity="0.941" stroke="#E7E7E7" stroke-width="3.30017166" stroke-linecap="round" transform="translate(-115.500000, 97.500000) scale(-1, 1) translate(115.500000, -97.500000) " points="280 167 -394.064406 167 -511 28"></polyline>
        <path d="M740.908344,598.290764 L579.807307,437.189727" id="Path" stroke-opacity="0.941" stroke="#E7E7E7" stroke-width="3.30017166" stroke-linecap="round"></path>
        <path d="M243.5,627.189727 L93.8073072,627.189727" id="Path" stroke-opacity="0.941" stroke="#E7E7E7" stroke-width="3.30017166" stroke-linecap="round"></path>
        <path d="M754.546583,330.290764 L396.523292,330.290764" id="Path" stroke-opacity="0.941" stroke="#706A5F" stroke-width="3.30017166" stroke-linecap="round"></path>
        <g id="Ship" transform="translate(731.000000, 291.000000)" fill-rule="nonzero">
            <path d="M15.0159615,3.58916667 C17.4558923,0.676666667 21.8307308,-0.469166667 25.6909846,0.839166667 L106.606808,33.2108333 C109.942046,34.7458333 112.234208,37.8466667 112.248115,41.1866667 C112.263762,44.5275 110.175869,47.66 106.676346,48.7991667 L25.5162692,79.0058333 C21.4926,80.3708333 17.1073308,79.2891667 14.8160385,76.1883333 C12.5247462,73.0875 12.3309077,69.08 14.9446846,65.7216667 C15.6418077,65.0475 15.9877615,64.155 16.6866231,63.4816667 C21.5612692,56.5425 24.3271615,48.2825 24.2871769,39.3758333 C24.2471923,30.4675 21.5795231,21.58 16.1146692,14.2708333 C15.7635,14.05 15.5853077,13.3833333 15.2341385,13.1633333 C14.0015692,11.8358333 13.4669923,9.83583333 13.2835846,8.055 C13.2783692,6.9425 13.9711462,5.155 15.0159615,3.58916667 Z" id="Shape" fill="#302C43"></path>
            <ellipse id="Oval" fill="#FEFCF9" cx="50.2641385" cy="39.945" rx="16.1598692" ry="15.8733333"></ellipse>
            <ellipse id="Oval" fill="#FF9A09" transform="translate(7.383487, 39.941912) rotate(90.546727) translate(-7.383487, -39.941912) " cx="7.38348711" cy="39.941912" rx="23.4578254" ry="6.59253121"></ellipse>
        </g>
        <g id="Ship" transform="translate(238.000000, 484.000000)" fill-rule="nonzero">
            <path d="M15.0159615,3.58916667 C17.4558923,0.676666667 21.8307308,-0.469166667 25.6909846,0.839166667 L106.606808,33.2108333 C109.942046,34.7458333 112.234208,37.8466667 112.248115,41.1866667 C112.263762,44.5275 110.175869,47.66 106.676346,48.7991667 L25.5162692,79.0058333 C21.4926,80.3708333 17.1073308,79.2891667 14.8160385,76.1883333 C12.5247462,73.0875 12.3309077,69.08 14.9446846,65.7216667 C15.6418077,65.0475 15.9877615,64.155 16.6866231,63.4816667 C21.5612692,56.5425 24.3271615,48.2825 24.2871769,39.3758333 C24.2471923,30.4675 21.5795231,21.58 16.1146692,14.2708333 C15.7635,14.05 15.5853077,13.3833333 15.2341385,13.1633333 C14.0015692,11.8358333 13.4669923,9.83583333 13.2835846,8.055 C13.2783692,6.9425 13.9711462,5.155 15.0159615,3.58916667 Z" id="Shape" fill="#302C43"></path>
            <ellipse id="Oval" fill="#FEFCF9" cx="50.2641385" cy="39.945" rx="16.1598692" ry="15.8733333"></ellipse>
            <ellipse id="Oval" fill="#FF9A09" transform="translate(7.383487, 39.941912) rotate(90.546727) translate(-7.383487, -39.941912) " cx="7.38348711" cy="39.941912" rx="23.4578254" ry="6.59253121"></ellipse>
        </g>
        <g id="alien_ship" opacity="0.395256696" transform="translate(259.000000, 200.000000)">
            <circle id="Oval" fill="#00599F" fill-rule="nonzero" cx="27.5" cy="34.5" r="5.5"></circle>
            <circle id="Oval" fill="#00599F" fill-rule="nonzero" cx="45.5" cy="37.5" r="5.5"></circle>
            <circle id="Oval" fill="#00599F" fill-rule="nonzero" cx="63.5" cy="33.5" r="5.5"></circle>
            <path d="M88.9996523,24.176078 C88.9337104,29.9910387 67.7690936,36.3219552 43.1507674,35.9872812 C18.5324412,35.6526072 0.0137449746,28.6997549 7.0693855e-06,22.9071057 C-0.0137308358,17.1172456 19.9969019,12.685604 44.6124805,13.0174891 C69.2308067,13.3521631 89.0958177,18.3527504 88.9996523,24.173289 L88.9996523,24.176078 Z" id="Shape" fill="#6198AA" fill-rule="nonzero"></path>
            <path d="M80.9942357,21.7455223 C80.9389915,26.2972139 63.8188161,31.2530783 43.9060466,30.989959 C23.9932772,30.7295523 9.01105202,25.288138 9.00000318,20.7554345 C8.99171655,16.2200184 25.1755029,12.7533546 45.0910346,13.0137613 C65.0065662,13.2768805 81.0715776,17.1911182 80.9997601,21.7482349 L80.9942357,21.7455223 Z" id="Shape" fill="#89B2BF" fill-rule="nonzero"></path>
            <path d="M59.9981886,16.6715825 C60.1318342,7.59819425 52.8532792,0.134880026 43.741081,0.00180366445 C34.6288829,-0.131272697 27.1336456,7.11628211 27,16.1896704 C29.0981348,25.1844509 56.0686543,27.7473473 59.9981886,16.6715825 Z" id="Shape" fill="#ECECEC" fill-rule="nonzero"></path>
            <path d="M43.1261344,5.00001871 C41.2348707,4.99559711 39.4198437,5.77497467 38.0825149,7.16576281 C36.7451861,8.55655095 35.9957664,10.444133 36.000018,12.4109995 L36.000018,22.7443088 C40.6088431,24.1556607 46.2980279,24.4490005 50.9999875,23.2562698 L50.9999875,12.4082322 C51.0035305,10.4418447 50.2537979,8.55497516 48.9165462,7.16478652 C47.5792944,5.77459787 45.7646727,4.99559971 43.8738711,5.00001871 L43.1261344,5.00001871 Z" id="Shape" fill="#87D86D" fill-rule="nonzero"></path>
            <path d="M43.5596341,5.00001874 C41.5533202,4.99559149 39.6278809,5.77596372 38.2091992,7.16852683 C36.7905175,8.56108994 35.9955088,10.451081 36.0000191,12.4204577 L36.0000191,22.7669547 C38.6044321,23.5013004 41.2916361,23.9154819 44,24 L44,5 L43.5596341,5.00001874 Z" id="Shape" fill="#73AA61" fill-rule="nonzero"></path>
            <ellipse id="Oval" fill="#FFFFFF" fill-rule="nonzero" cx="43" cy="12.5" rx="5" ry="5.5"></ellipse>
            <circle id="Oval" fill="#000000" fill-rule="nonzero" cx="44" cy="13" r="3"></circle>
            <path d="M45.1055685,11 L45,11.7857143 C45.5659643,12.0595238 45.7360468,12.5285714 45.8943995,13 C46.2111049,12.2952381 45.7771012,11.6404762 45.102636,11 L45.1055685,11 Z" id="Shape" fill="#FFFFFF"></path>
        </g>
        <g id="alien_ship" opacity="0.319977679" transform="translate(531.000000, 583.000000)">
            <ellipse id="Oval" fill="#00599F" fill-rule="nonzero" cx="16.5" cy="20" rx="3.5" ry="3"></ellipse>
            <ellipse id="Oval" fill="#00599F" fill-rule="nonzero" cx="27.5" cy="23" rx="3.5" ry="3"></ellipse>
            <ellipse id="Oval" fill="#00599F" fill-rule="nonzero" cx="38.5" cy="20" rx="3.5" ry="3"></ellipse>
            <path d="M53.999789,14.8028301 C53.9597793,18.3423714 41.1183264,22.1959727 26.1813645,21.9922581 C11.2444025,21.7885435 0.00833964752,17.5563725 4.28929008e-06,14.0304122 C-0.00833106894,10.5061495 12.1329517,7.80862854 27.0682466,8.01064552 C42.0052086,8.21436013 54.0581366,11.2581959 53.999789,14.8011325 L53.999789,14.8028301 Z" id="Shape" fill="#6198AA" fill-rule="nonzero"></path>
            <path d="M48.9964774,13.3444859 C48.962717,16.1260751 38.5003876,19.1546589 26.3314729,18.9938638 C14.1625583,18.8347264 5.00675401,15.5094177 5.00000194,12.7394322 C4.99493789,9.967789 14.8850296,7.84927226 27.0556322,8.00840967 C39.2262349,8.16920476 49.0437419,10.5612389 48.9998534,13.3461436 L48.9964774,13.3444859 Z" id="Shape" fill="#89B2BF" fill-rule="nonzero"></path>
            <path d="M35.9989022,9.72508982 C36.0798995,4.43227998 31.6686541,0.0786800153 26.1461097,0.00105213759 C20.6235654,-0.0765757401 16.0809973,4.15116457 16,9.44397441 C17.2715969,14.6909297 33.6173663,16.1859526 35.9989022,9.72508982 Z" id="Shape" fill="#ECECEC" fill-rule="nonzero"></path>
            <path d="M26.2756807,3.00001182 C25.1409224,2.99721923 24.0519062,3.48945769 23.2495089,4.3678502 C22.4471116,5.24624271 21.9974598,6.43839982 22.0000108,7.68063128 L22.0000108,14.2069319 C24.7653059,15.098312 28.1788168,15.2835792 30.9999925,14.5302757 L30.9999925,7.67888347 C31.0021183,6.43695457 30.5522787,5.24524747 29.7499277,4.36723359 C28.9475767,3.48921971 27.8588036,2.99722087 26.7243226,3.00001182 L26.2756807,3.00001182 Z" id="Shape" fill="#87D86D" fill-rule="nonzero"></path>
            <path d="M26.7247713,3.00001183 C25.4708252,2.99721568 24.2674256,3.49008235 23.3807495,4.36959589 C22.4940734,5.24910943 21.997193,6.44278801 22.0000119,7.68660485 L22.0000119,14.2212345 C23.62777,14.6850318 25.3072726,14.9466202 27,15 L27,3 L26.7247713,3.00001183 Z" id="Shape" fill="#73AA61" fill-rule="nonzero"></path>
            <circle id="Oval" fill="#FFFFFF" fill-rule="nonzero" cx="26" cy="7" r="3"></circle>
            <circle id="Oval" fill="#000000" fill-rule="nonzero" cx="27" cy="8" r="2"></circle>
            <path d="M27.1055685,6 L27,6.78571429 C27.5659643,7.05952381 27.7360468,7.52857143 27.8943995,8 C28.2111049,7.2952381 27.7771012,6.64047619 27.102636,6 L27.1055685,6 Z" id="Shape" fill="#FFFFFF"></path>
        </g>
    </g>
</svg>